<svg width="182" height="55" viewBox="0 0 182 55" fill="none" xmlns="http://www.w3.org/2000/svg">
<g clip-path="url(#clip0_975_8627)">
<path d="M19.8705 38.3705L23.5062 34.7348C24.6841 35.3696 25.9869 35.6916 27.2909 35.6916C29.3339 35.6916 31.3769 34.9124 32.9353 33.3541C38.5796 27.7097 37.773 17.2276 37.773 17.2276C37.773 17.2276 37.2562 17.1875 36.3888 17.1875C33.3535 17.1875 26.0373 17.6756 21.6465 22.0653C19.0924 24.6194 18.6341 28.4717 20.2646 31.4955L16.6289 35.1301L19.8705 38.3705Z" fill="#A05AFF"/>
<path d="M17.2128 20.2491L15.4333 16.0256L12.2433 17.3697C15.5972 12.3463 21.3229 9.16665 27.5001 9.16665C37.6086 9.16665 45.8334 17.3914 45.8334 27.5H50.4168C50.4168 14.8637 40.1364 4.58331 27.5001 4.58331C19.5045 4.58331 12.123 8.84925 8.00375 15.5169L6.87281 12.171L2.53125 13.6388L6.31823 24.8382L17.2128 20.2491Z" fill="#A05AFF"/>
<path d="M37.787 34.7508L39.5664 38.9744L42.7564 37.6303C39.4026 42.6536 33.6769 45.8333 27.4997 45.8333C17.3911 45.8333 9.16634 37.6085 9.16634 27.5H4.58301C4.58301 40.1362 14.8634 50.4167 27.4997 50.4167C35.4953 50.4167 42.8768 46.1507 46.996 39.4831L48.127 42.829L52.4685 41.3611L48.6816 30.1618L37.787 34.7508Z" fill="#A05AFF"/>
</g>
<path d="M72.56 39V16.824H87.536V21.016H77.552V25.368H86.416V29.464H77.552V34.808H88.272V39H72.56ZM88.4713 30.584C88.4713 29.368 88.6633 28.2267 89.0473 27.16C89.4526 26.072 90.0286 25.1333 90.7753 24.344C91.5219 23.5333 92.4286 22.8933 93.4953 22.424C94.5619 21.9547 95.7779 21.72 97.1433 21.72C98.0393 21.72 98.8606 21.8053 99.6073 21.976C100.354 22.1253 101.079 22.3493 101.783 22.648L100.791 26.456C100.343 26.2853 99.8526 26.136 99.3193 26.008C98.7859 25.88 98.1886 25.816 97.5273 25.816C96.1193 25.816 95.0633 26.2533 94.3593 27.128C93.6766 28.0027 93.3353 29.1547 93.3353 30.584C93.3353 32.0987 93.6553 33.272 94.2953 34.104C94.9566 34.936 96.0979 35.352 97.7193 35.352C98.2953 35.352 98.9139 35.2987 99.5753 35.192C100.237 35.0853 100.845 34.9147 101.399 34.68L102.071 38.584C101.517 38.8187 100.823 39.0213 99.9913 39.192C99.1593 39.3627 98.2419 39.448 97.2393 39.448C95.7033 39.448 94.3806 39.224 93.2713 38.776C92.1619 38.3067 91.2446 37.6773 90.5193 36.888C89.8153 36.0987 89.2926 35.1707 88.9513 34.104C88.6313 33.016 88.4713 31.8427 88.4713 30.584ZM118.203 30.552C118.203 31.8747 118.011 33.0907 117.627 34.2C117.243 35.288 116.688 36.2267 115.963 37.016C115.237 37.784 114.363 38.3813 113.339 38.808C112.336 39.2347 111.205 39.448 109.947 39.448C108.709 39.448 107.579 39.2347 106.555 38.808C105.552 38.3813 104.688 37.784 103.963 37.016C103.237 36.2267 102.672 35.288 102.267 34.2C101.861 33.0907 101.659 31.8747 101.659 30.552C101.659 29.2293 101.861 28.024 102.267 26.936C102.693 25.848 103.269 24.92 103.995 24.152C104.741 23.384 105.616 22.7867 106.619 22.36C107.643 21.9333 108.752 21.72 109.947 21.72C111.163 21.72 112.272 21.9333 113.275 22.36C114.299 22.7867 115.173 23.384 115.899 24.152C116.624 24.92 117.189 25.848 117.595 26.936C118 28.024 118.203 29.2293 118.203 30.552ZM113.339 30.552C113.339 29.08 113.04 27.928 112.443 27.096C111.867 26.2427 111.035 25.816 109.947 25.816C108.859 25.816 108.016 26.2427 107.419 27.096C106.821 27.928 106.523 29.08 106.523 30.552C106.523 32.024 106.821 33.1973 107.419 34.072C108.016 34.9253 108.859 35.352 109.947 35.352C111.035 35.352 111.867 34.9253 112.443 34.072C113.04 33.1973 113.339 32.024 113.339 30.552ZM126.264 35.192C126.968 35.192 127.544 35.1387 127.992 35.032C128.462 34.904 128.835 34.744 129.112 34.552C129.39 34.3387 129.582 34.0933 129.688 33.816C129.795 33.5387 129.848 33.2293 129.848 32.888C129.848 32.1627 129.507 31.5653 128.824 31.096C128.142 30.6053 126.968 30.0827 125.304 29.528C124.579 29.272 123.854 28.984 123.128 28.664C122.403 28.3227 121.752 27.9067 121.176 27.416C120.6 26.904 120.131 26.296 119.768 25.592C119.406 24.8667 119.224 23.992 119.224 22.968C119.224 21.944 119.416 21.0267 119.8 20.216C120.184 19.384 120.728 18.68 121.432 18.104C122.136 17.528 122.99 17.0907 123.992 16.792C124.995 16.472 126.126 16.312 127.384 16.312C128.878 16.312 130.168 16.472 131.256 16.792C132.344 17.112 133.24 17.464 133.944 17.848L132.504 21.784C131.886 21.464 131.192 21.1867 130.424 20.952C129.678 20.696 128.771 20.568 127.704 20.568C126.51 20.568 125.646 20.7387 125.112 21.08C124.6 21.4 124.344 21.9013 124.344 22.584C124.344 22.9893 124.44 23.3307 124.632 23.608C124.824 23.8853 125.091 24.1413 125.432 24.376C125.795 24.5893 126.2 24.792 126.648 24.984C127.118 25.1547 127.63 25.336 128.184 25.528C129.336 25.9547 130.339 26.3813 131.192 26.808C132.046 27.2133 132.75 27.6933 133.304 28.248C133.88 28.8027 134.307 29.4533 134.584 30.2C134.862 30.9467 135 31.8533 135 32.92C135 34.9893 134.275 36.6 132.824 37.752C131.374 38.8827 129.187 39.448 126.264 39.448C125.283 39.448 124.398 39.384 123.608 39.256C122.819 39.1493 122.115 39.0107 121.496 38.84C120.899 38.6693 120.376 38.488 119.928 38.296C119.502 38.104 119.139 37.9227 118.84 37.752L120.248 33.784C120.91 34.1467 121.72 34.4773 122.68 34.776C123.662 35.0533 124.856 35.192 126.264 35.192ZM150.965 22.168C150.005 25.4107 149.003 28.4507 147.957 31.288C146.912 34.1253 145.771 36.8773 144.533 39.544C144.085 40.504 143.637 41.3147 143.189 41.976C142.741 42.6587 142.251 43.2133 141.717 43.64C141.184 44.088 140.576 44.408 139.893 44.6C139.232 44.8133 138.453 44.92 137.557 44.92C136.811 44.92 136.117 44.8453 135.477 44.696C134.859 44.568 134.347 44.4187 133.941 44.248L134.773 40.44C135.264 40.6107 135.701 40.728 136.085 40.792C136.469 40.856 136.875 40.888 137.301 40.888C138.155 40.888 138.805 40.6533 139.253 40.184C139.723 39.736 140.117 39.1067 140.437 38.296C139.349 36.1627 138.261 33.7733 137.173 31.128C136.085 28.4613 135.061 25.4747 134.101 22.168H139.157C139.371 23 139.616 23.9067 139.893 24.888C140.192 25.848 140.501 26.8293 140.821 27.832C141.141 28.8133 141.461 29.7733 141.781 30.712C142.123 31.6507 142.443 32.504 142.741 33.272C143.019 32.504 143.307 31.6507 143.605 30.712C143.904 29.7733 144.192 28.8133 144.469 27.832C144.768 26.8293 145.045 25.848 145.301 24.888C145.579 23.9067 145.824 23 146.037 22.168H150.965ZM151.521 22.744C152.332 22.5093 153.377 22.296 154.657 22.104C155.937 21.8907 157.281 21.784 158.689 21.784C160.119 21.784 161.303 21.976 162.241 22.36C163.201 22.7227 163.959 23.2453 164.513 23.928C165.068 24.6107 165.463 25.4213 165.697 26.36C165.932 27.2987 166.049 28.344 166.049 29.496V39H161.281V30.072C161.281 28.536 161.079 27.448 160.673 26.808C160.268 26.168 159.511 25.848 158.401 25.848C158.06 25.848 157.697 25.8693 157.313 25.912C156.929 25.9333 156.588 25.9653 156.289 26.008V39H151.521V22.744ZM167.565 30.584C167.565 29.368 167.757 28.2267 168.141 27.16C168.546 26.072 169.122 25.1333 169.869 24.344C170.616 23.5333 171.522 22.8933 172.589 22.424C173.656 21.9547 174.872 21.72 176.237 21.72C177.133 21.72 177.954 21.8053 178.701 21.976C179.448 22.1253 180.173 22.3493 180.877 22.648L179.885 26.456C179.437 26.2853 178.946 26.136 178.413 26.008C177.88 25.88 177.282 25.816 176.621 25.816C175.213 25.816 174.157 26.2533 173.453 27.128C172.77 28.0027 172.429 29.1547 172.429 30.584C172.429 32.0987 172.749 33.272 173.389 34.104C174.05 34.936 175.192 35.352 176.813 35.352C177.389 35.352 178.008 35.2987 178.669 35.192C179.33 35.0853 179.938 34.9147 180.493 34.68L181.165 38.584C180.61 38.8187 179.917 39.0213 179.085 39.192C178.253 39.3627 177.336 39.448 176.333 39.448C174.797 39.448 173.474 39.224 172.365 38.776C171.256 38.3067 170.338 37.6773 169.613 36.888C168.909 36.0987 168.386 35.1707 168.045 34.104C167.725 33.016 167.565 31.8427 167.565 30.584Z" fill="#A05AFF"/>
<defs>
<clipPath id="clip0_975_8627">
<rect width="55" height="55" fill="white"/>
</clipPath>
</defs>
</svg>
