<svg width="55" height="55" viewBox="0 0 55 55" fill="none" xmlns="http://www.w3.org/2000/svg">
<g clip-path="url(#clip0_1472_4556)">
<path d="M19.8705 38.3705L23.5062 34.7348C24.6841 35.3696 25.9869 35.6916 27.2909 35.6916C29.3339 35.6916 31.3769 34.9124 32.9353 33.3541C38.5796 27.7097 37.773 17.2276 37.773 17.2276C37.773 17.2276 37.2562 17.1875 36.3888 17.1875C33.3535 17.1875 26.0373 17.6756 21.6465 22.0653C19.0924 24.6194 18.6341 28.4717 20.2646 31.4955L16.6289 35.1301L19.8705 38.3705Z" fill="#A05AFF"/>
<path d="M17.2128 20.2491L15.4333 16.0256L12.2433 17.3697C15.5972 12.3463 21.3229 9.16665 27.5001 9.16665C37.6086 9.16665 45.8334 17.3914 45.8334 27.5H50.4168C50.4168 14.8637 40.1364 4.58331 27.5001 4.58331C19.5045 4.58331 12.123 8.84925 8.00375 15.5169L6.87281 12.171L2.53125 13.6388L6.31823 24.8382L17.2128 20.2491Z" fill="#A05AFF"/>
<path d="M37.787 34.7508L39.5664 38.9744L42.7564 37.6303C39.4026 42.6536 33.6769 45.8333 27.4997 45.8333C17.3911 45.8333 9.16634 37.6085 9.16634 27.5H4.58301C4.58301 40.1362 14.8634 50.4167 27.4997 50.4167C35.4953 50.4167 42.8768 46.1507 46.996 39.4831L48.127 42.829L52.4685 41.3611L48.6816 30.1618L37.787 34.7508Z" fill="#A05AFF"/>
</g>
<defs>
<clipPath id="clip0_1472_4556">
<rect width="55" height="55" fill="white"/>
</clipPath>
</defs>
</svg>
